<?xml version="1.0" standalone="no"?>
<!DOCTYPE svg PUBLIC "-//W3C//DTD SVG 20010904//EN"
 "http://www.w3.org/TR/2001/REC-SVG-20010904/DTD/svg10.dtd">
<svg version="1.0" xmlns="http://www.w3.org/2000/svg"
 width="260.000000pt" height="260.000000pt" viewBox="0 0 260.000000 260.000000"
 preserveAspectRatio="xMidYMid meet">
<metadata>
Created by potrace 1.14, written by Peter Selinger 2001-2017
</metadata>
<g transform="translate(0.000000,260.000000) scale(0.100000,-0.100000)"
fill="#000000" stroke="none">
<path d="M1088 2434 c-207 -37 -403 -155 -539 -325 -57 -70 -141 -236 -164
-324 -8 -33 -18 -97 -22 -142 l-6 -83 422 0 421 0 0 445 c0 417 -1 445 -17
444 -10 0 -52 -7 -95 -15z"/>
<path d="M2138 1819 c-36 -20 -269 -263 -274 -286 l-6 -23 -759 0 c-601 0
-759 -3 -759 -12 0 -37 23 -151 42 -208 101 -312 366 -544 693 -605 326 -62
688 79 880 342 96 132 150 267 170 426 l7 57 -36 0 c-20 0 -36 4 -36 9 0 4 40
47 90 95 49 47 94 95 100 105 35 66 -47 139 -112 100z"/>
<path d="M762 604 c-207 -104 -155 -413 76 -450 66 -10 135 12 191 62 64 57
85 110 79 198 -5 77 -37 132 -106 181 -37 25 -54 30 -115 33 -62 3 -79 0 -125
-24z m176 -104 c97 -59 66 -212 -45 -227 -94 -12 -149 43 -144 146 1 13 18 41
40 62 32 32 46 39 77 39 22 0 54 -9 72 -20z"/>
<path d="M1524 606 c-139 -65 -177 -249 -76 -366 90 -106 235 -117 338 -27 77
68 102 158 72 258 -39 132 -200 197 -334 135z m177 -109 c39 -26 66 -89 55
-130 -3 -15 -19 -42 -35 -60 -27 -29 -34 -32 -89 -32 -71 0 -106 24 -123 88
-9 32 -7 45 11 82 35 73 116 96 181 52z"/>
</g>
</svg>
