<svg width="74" height="72" viewBox="0 0 74 72" fill="none" xmlns="http://www.w3.org/2000/svg">
<ellipse cx="36.7701" cy="36" rx="35.8639" ry="36" fill="#F9B72B" fill-opacity="0.49"/>
<path d="M73.562 30.768C73.3721 29.8251 72.6721 29.1173 71.7353 28.9208L66.6857 27.862L72.5945 23.7512C73.3814 23.2037 73.7521 22.2779 73.5621 21.335C73.3722 20.3921 72.6723 19.6844 71.7356 19.4879L61.712 17.3862C61.186 17.276 60.67 17.6152 60.5602 18.1446C60.4504 18.6738 60.788 19.1923 61.3145 19.3026L71.3381 21.4044C71.5666 21.4523 71.6339 21.625 71.6539 21.7238C71.6739 21.8226 71.6784 22.008 71.4866 22.1415L62.469 28.4152L51.2397 21.6645C50.5075 21.2244 49.5939 21.2171 48.8549 21.6459L29.4154 32.9233L9.41953 28.7308C9.19107 28.6829 9.12369 28.5102 9.1037 28.4115C9.08384 28.3129 9.07917 28.1274 9.27103 27.9939L30.7802 13.03C30.8717 12.9664 30.9864 12.9432 31.0949 12.9659L56.516 18.2964C57.0422 18.4072 57.5581 18.0673 57.6678 17.538C57.7776 17.0088 57.4398 16.4904 56.9135 16.38L31.4924 11.0495C30.8637 10.9174 30.2002 11.0526 29.6722 11.4201L8.16311 26.3841C7.37621 26.9316 7.00547 27.8574 7.19551 28.8003C7.38555 29.7432 8.08548 30.4509 9.02218 30.6473L14.0721 31.7061L8.16324 35.8168C7.37634 36.3643 7.0056 37.2902 7.19551 38.2331C7.38542 39.176 8.08535 39.8836 9.02218 40.08L14.0721 41.1388L8.16324 45.2496C7.37634 45.7969 7.0056 46.7228 7.19551 47.6656C7.38542 48.6085 8.08535 49.3162 9.02218 49.5128L49.2657 57.9507C49.4234 57.9837 49.5833 58 49.7427 58C50.2186 58 50.69 57.8551 51.0857 57.58L63.4201 48.9991C63.8623 48.6915 63.9727 48.0818 63.6668 47.6372C63.3608 47.1926 62.7543 47.0815 62.3122 47.3893L49.9779 55.9702C49.8867 56.0336 49.7716 56.0573 49.6631 56.0343L9.41966 47.5965C9.19119 47.5486 9.12369 47.3758 9.10383 47.2772C9.08397 47.1785 9.0793 46.9931 9.27116 46.8595L16.7015 41.6902L29.3295 44.338C29.3966 44.3521 29.4633 44.3589 29.5293 44.3589C29.9806 44.3589 30.3855 44.0415 30.4813 43.5797C30.5911 43.0505 30.2533 42.532 29.727 42.4216L9.41966 38.1638C9.19119 38.1159 9.12369 37.9432 9.10383 37.8446C9.08397 37.7459 9.0793 37.5603 9.27116 37.4268L16.7015 32.2575L29.3814 34.9159C29.4899 34.9385 29.5987 34.9426 29.7079 34.9281L42.824 33.1837C42.84 33.7119 43.2702 34.1326 43.7962 34.1326H43.8094C44.3471 34.1253 44.7771 33.6813 44.7699 33.1408L44.7684 33.0358C44.7679 32.9986 44.7649 32.9622 44.7604 32.9261L59.2935 30.9933C59.2866 31.0425 59.2821 31.0924 59.2827 31.1437L59.284 31.2487C59.2909 31.7849 59.7254 32.2149 60.2573 32.2149H60.2701C60.8077 32.208 61.238 31.7642 61.2312 31.2237L61.2299 31.1188C61.2282 30.9865 61.2001 30.8608 61.1513 30.7463L62.6349 30.549C62.7881 30.5286 62.9343 30.472 63.0612 30.3835L64.4768 29.3987L71.3376 30.8372C71.566 30.8851 71.6335 31.0579 71.6535 31.1565C71.6734 31.2552 71.6781 31.4406 71.4862 31.5741L49.9778 46.5374C49.8865 46.601 49.772 46.6242 49.6631 46.6017L34.4976 43.4218C33.9714 43.3114 33.4556 43.651 33.3456 44.1802C33.2359 44.7094 33.5736 45.2279 34.1 45.3382L49.2657 48.518C49.4234 48.5511 49.5833 48.5674 49.7427 48.5674C50.2187 48.5674 50.6902 48.4225 51.0857 48.1473L64.4765 38.8313L71.3377 40.2699C71.5662 40.3178 71.6337 40.4905 71.6535 40.5891C71.6734 40.6878 71.6781 40.8734 71.4862 41.0069L66.2245 44.6674C65.7824 44.975 65.6719 45.5847 65.9779 46.0293C66.1669 46.3038 66.4705 46.4512 66.7793 46.4512C66.9704 46.4512 67.1634 46.3948 67.3324 46.2772L72.5941 42.6167C73.381 42.0692 73.7518 41.1434 73.5618 40.2006C73.3719 39.2577 72.672 38.55 71.7352 38.3535L66.6852 37.2947L72.5941 33.184C73.381 32.6366 73.7519 31.7108 73.562 30.768ZM49.828 23.3413C49.9556 23.2672 50.1137 23.2685 50.2403 23.3446L59.6091 28.9768L34.3157 32.3406L49.828 23.3413Z" fill="#015965"/>
<path d="M45.9763 38.9678H45.9631C45.4254 38.9751 44.9953 39.4191 45.0026 39.9597L45.004 40.0647C45.0112 40.6008 45.4457 41.0305 45.9774 41.0305H45.9906C46.5283 41.0232 46.9584 40.5792 46.9511 40.0386L46.9497 39.9336C46.9424 39.3975 46.5079 38.9678 45.9763 38.9678Z" fill="#015965"/>
<path d="M45.9692 44.3396H45.9819C46.5196 44.3327 46.9499 43.8888 46.9431 43.3484L46.9418 43.2434C46.9349 42.7029 46.4953 42.2651 45.9558 42.2771C45.4181 42.2841 44.9878 42.7279 44.9947 43.2684L44.996 43.3733C45.0027 43.9096 45.4372 44.3396 45.9692 44.3396Z" fill="#015965"/>
<path d="M47.5818 42.6379L47.6855 42.6365C48.2232 42.6296 48.6535 42.1858 48.6465 41.6452C48.6396 41.1046 48.1975 40.6704 47.6604 40.679L47.5567 40.6803C47.019 40.6872 46.5887 41.1311 46.5957 41.6717C46.6026 42.208 47.0371 42.638 47.5691 42.638L47.5818 42.6379Z" fill="#015965"/>
<path d="M44.363 40.6699L44.2593 40.6713C43.7216 40.6786 43.2917 41.1226 43.299 41.6633C43.3062 42.1993 43.7406 42.629 44.2723 42.629H44.2857L44.3894 42.6275C44.9271 42.6202 45.357 42.1762 45.3498 41.6355C45.3425 41.095 44.9007 40.6635 44.363 40.6699Z" fill="#015965"/>
<path d="M53.2988 34.5602C52.7611 34.5671 52.3307 35.011 52.3376 35.5514L52.3389 35.6564C52.3458 36.1926 52.7803 36.6227 53.3123 36.6227H53.325C53.8627 36.6158 54.293 36.1719 54.2861 35.6314L54.2848 35.5265C54.2778 34.986 53.8371 34.5479 53.2988 34.5602Z" fill="#015965"/>
<path d="M53.2905 37.8693C52.7528 37.8763 52.3224 38.3201 52.3293 38.8606L52.3306 38.9655C52.3375 39.5018 52.772 39.9318 53.304 39.9318H53.3167C53.8544 39.9249 54.2847 39.481 54.2778 38.9406L54.2765 38.8357C54.2695 38.2952 53.8298 37.8635 53.2905 37.8693Z" fill="#015965"/>
<path d="M54.9172 38.23L55.0209 38.2285C55.5586 38.2212 55.9887 37.7772 55.9814 37.2366C55.9741 36.696 55.5288 36.2641 54.9948 36.2709L54.8911 36.2724C54.3534 36.2797 53.9234 36.7237 53.9306 37.2643C53.9378 37.8004 54.3722 38.23 54.904 38.23H54.9172Z" fill="#015965"/>
<path d="M51.5952 36.2635C51.0575 36.2704 50.6272 36.7143 50.6342 37.2549C50.6411 37.7912 51.0756 38.2212 51.6075 38.2212H51.6202L51.724 38.2199C52.2616 38.213 52.692 37.7691 52.685 37.2285C52.6781 36.6879 52.2397 36.2535 51.6989 36.2623L51.5952 36.2635Z" fill="#015965"/>
<path d="M59.2752 34.4529L59.2765 34.5579C59.2834 35.0941 59.7179 35.5242 60.2498 35.5242H60.2626C60.8003 35.5172 61.2306 35.0734 61.2237 34.5329L61.2224 34.428C61.2155 33.8874 60.7752 33.4537 60.2365 33.4617C59.6987 33.4685 59.2683 33.9123 59.2752 34.4529Z" fill="#015965"/>
<path d="M61.8497 33.8225H61.8624L61.9661 33.8212C62.5038 33.8142 62.9341 33.3704 62.9271 32.8298C62.9203 32.2892 62.474 31.8526 61.9411 31.8636L61.8374 31.8649C61.2997 31.8718 60.8694 32.3157 60.8764 32.8563C60.8833 33.3924 61.3177 33.8225 61.8497 33.8225Z" fill="#015965"/>
<path d="M58.6445 31.8543L58.5408 31.8556C58.0031 31.8626 57.5728 32.3064 57.5798 32.847C57.5867 33.3833 58.0211 33.8133 58.5531 33.8133H58.5658L58.6695 33.812C59.2072 33.8051 59.6375 33.3612 59.6305 32.8207C59.6237 32.2799 59.1777 31.8443 58.6445 31.8543Z" fill="#015965"/>
<path d="M36.4613 36.4779H36.4481C35.9104 36.4852 35.4803 36.9292 35.4876 37.4698L35.489 37.5747C35.4962 38.1108 35.9307 38.5405 36.4624 38.5405H36.4756C37.0133 38.5332 37.4434 38.0892 37.4361 37.5486L37.4347 37.4437C37.4275 36.9075 36.9931 36.4779 36.4613 36.4779Z" fill="#015965"/>
<path d="M36.4383 39.787C35.9006 39.7939 35.4703 40.2376 35.4772 40.7782L35.4785 40.8831C35.4853 41.4194 35.9198 41.8494 36.4518 41.8494H36.4645C37.0022 41.8425 37.4326 41.3988 37.4257 40.8582L37.4244 40.7533C37.4174 40.2127 36.9739 39.7825 36.4383 39.787Z" fill="#015965"/>
<path d="M38.0675 40.1477L38.1713 40.1462C38.7089 40.1389 39.139 39.6949 39.1317 39.1544C39.1245 38.6138 38.6799 38.1779 38.1452 38.1887L38.0415 38.1901C37.5038 38.1974 37.0737 38.6414 37.081 39.182C37.0881 39.7182 37.5226 40.1477 38.0543 40.1477H38.0675Z" fill="#015965"/>
<path d="M34.7428 38.1811C34.2051 38.188 33.7747 38.6319 33.7817 39.1725C33.7886 39.7088 34.2231 40.1388 34.7551 40.1388H34.7678L34.8715 40.1375C35.4092 40.1306 35.8396 39.6867 35.8325 39.1461C35.8257 38.6054 35.3851 38.1763 34.8465 38.18L34.7428 38.1811Z" fill="#015965"/>
<path d="M42.812 36.3706L42.8133 36.4755C42.8202 37.0118 43.2547 37.4418 43.7866 37.4418H43.7994C44.3371 37.4349 44.7674 36.991 44.7605 36.4506L44.7592 36.3456C44.7523 35.805 44.3088 35.3728 43.7733 35.3793C43.2356 35.3861 42.8052 35.83 42.812 36.3706Z" fill="#015965"/>
<path d="M45.4781 33.781L45.3744 33.7823C44.8367 33.7892 44.4063 34.2331 44.4134 34.7737C44.4202 35.3099 44.8547 35.74 45.3867 35.74H45.3994L45.5031 35.7387C46.0408 35.7318 46.4711 35.2879 46.4641 34.7473C46.4572 34.2066 46.0115 33.7752 45.4781 33.781Z" fill="#015965"/>
<path d="M42.1807 33.7719L42.077 33.7733C41.5393 33.7806 41.1093 34.2247 41.1166 34.7654C41.1239 35.3014 41.5582 35.731 42.0899 35.731H42.1033L42.207 35.7296C42.7447 35.7223 43.1747 35.2783 43.1674 34.7376C43.16 34.197 42.7169 33.7653 42.1807 33.7719Z" fill="#015965"/>
<path d="M27.7231 36.8333H27.7363C28.274 36.826 28.7041 36.382 28.6968 35.8414L28.6954 35.7365C28.6881 35.1959 28.2519 34.7646 27.7088 34.7708C27.1711 34.7781 26.741 35.2221 26.7483 35.7627L26.7497 35.8676C26.757 36.4037 27.1914 36.8333 27.7231 36.8333Z" fill="#015965"/>
<path d="M27.7153 40.1424H27.728C28.2657 40.1355 28.696 39.6916 28.6891 39.1512L28.6878 39.0462C28.6809 38.5099 28.2465 38.0799 27.7145 38.0799H27.7018C27.1641 38.0868 26.7337 38.5307 26.7406 39.0712L26.7419 39.1761C26.7488 39.7124 27.1833 40.1424 27.7153 40.1424Z" fill="#015965"/>
<path d="M29.3278 38.4407L29.4316 38.4394C29.9693 38.4324 30.3996 37.9886 30.3926 37.448C30.3857 36.9074 29.943 36.4706 29.4065 36.4818L29.3028 36.4831C28.7651 36.49 28.3348 36.9339 28.3418 37.4745C28.3487 38.0108 28.7831 38.4408 29.3151 38.4408L29.3278 38.4407Z" fill="#015965"/>
<path d="M26.0054 36.474C25.4677 36.4813 25.0376 36.9253 25.0449 37.4659C25.052 38.0021 25.4865 38.4316 26.0182 38.4316H26.0316L26.1353 38.4302C26.673 38.4229 27.1031 37.9788 27.0958 37.4383C27.0885 36.8977 26.645 36.4672 26.1092 36.4726L26.0054 36.474Z" fill="#015965"/>
<path d="M18.5974 35.518H18.6106C19.1483 35.5107 19.5784 35.0666 19.5711 34.526L19.5697 34.4211C19.5624 33.8805 19.1247 33.4447 18.5831 33.4554C18.0454 33.4627 17.6154 33.9067 17.6226 34.4473L17.6241 34.5523C17.6313 35.0883 18.0657 35.518 18.5974 35.518Z" fill="#015965"/>
<path d="M18.5893 38.8271H18.6026C19.1403 38.8198 19.5703 38.3758 19.5631 37.8352L19.5616 37.7303C19.5544 37.1897 19.1178 36.7564 18.5751 36.7646C18.0374 36.7719 17.6073 37.2159 17.6146 37.7565L17.616 37.8614C17.6231 38.3974 18.0576 38.8271 18.5893 38.8271Z" fill="#015965"/>
<path d="M20.2026 37.1252L20.3063 37.1237C20.844 37.1164 21.2741 36.6724 21.2668 36.1318C21.2595 35.5912 20.8184 35.1552 20.2802 35.1661L20.1765 35.1676C19.6388 35.1749 19.2087 35.6189 19.216 36.1595C19.2231 36.6956 19.6576 37.1252 20.1893 37.1252H20.2026Z" fill="#015965"/>
<path d="M16.8806 35.1585C16.3429 35.1654 15.9125 35.6093 15.9196 36.1499C15.9264 36.6861 16.3609 37.1162 16.8929 37.1162H16.9056L17.0093 37.1149C17.547 37.1079 17.9774 36.6641 17.9703 36.1235C17.9635 35.5829 17.5172 35.151 16.9843 35.1573L16.8806 35.1585Z" fill="#015965"/>
</svg>
