<svg width="75" height="72" viewBox="0 0 75 72" fill="none" xmlns="http://www.w3.org/2000/svg">
<ellipse cx="36.6283" cy="36" rx="36.1528" ry="36" fill="#F9B72B" fill-opacity="0.49"/>
<path d="M11.7188 40.8671C12.34 40.8671 12.8438 41.3708 12.8438 41.9921V49.875H14.6336C15.0748 45.9731 18.5955 43.1676 22.4972 43.6086C25.7915 43.981 28.3911 46.5807 28.7636 49.875H52.2188V17.25H12.8438V20.7881C12.8438 21.4094 12.34 21.9131 11.7188 21.9131C11.0975 21.9131 10.5938 21.4094 10.5938 20.7881V16.125C10.5938 15.5037 11.0975 15 11.7188 15H53.3438C53.965 15 54.4688 15.5037 54.4688 16.125V17.25H67.3523C70.1764 17.2537 72.4651 19.5422 72.4688 22.3665V24C72.4688 24.6213 71.965 25.125 71.3438 25.125H70.0354L70.8937 35.4356C73.1402 36.0203 74.7109 38.0451 74.7188 40.3665V49.875C74.7188 50.4963 74.215 51 73.5938 51H71.3156C71.0072 55.023 67.4958 58.0343 63.4728 57.726C59.8785 57.4505 57.0225 54.5944 56.7469 51C56.7367 51 56.7289 51.0056 56.7188 51.0056H54.4688C54.4688 51.6269 53.965 52.1306 53.3438 52.1306H28.6613C27.8598 55.976 24.0928 58.4436 20.2474 57.6421C17.4775 57.0649 15.3133 54.9005 14.736 52.1306H11.7188C11.0975 52.1306 10.5938 51.6269 10.5938 51.0056V41.9921C10.5938 41.3707 11.0975 40.8671 11.7188 40.8671ZM64.0312 55.5C66.8272 55.5 69.0938 53.2334 69.0938 50.4375C69.0938 47.6416 66.8272 45.375 64.0312 45.375C61.2353 45.375 58.9688 47.6416 58.9688 50.4375C58.9718 53.2321 61.2366 55.4969 64.0312 55.5ZM54.4688 48.75H56.7188C56.7847 48.7569 56.85 48.77 56.9134 48.7894C57.8182 44.8585 61.7382 42.4054 65.669 43.3102C68.3794 43.934 70.5001 46.0431 71.139 48.75H72.4688V40.3665C72.4669 38.7842 71.1846 37.5018 69.6023 37.5H54.4688V48.75ZM54.4688 35.25H68.6213L67.7775 25.125H54.4688V35.25ZM54.4688 22.875H70.2188V22.3665C70.2169 20.7842 68.9346 19.5018 67.3523 19.5H54.4688V22.875ZM16.8438 50.955C16.9884 53.5287 19.1198 55.5404 21.6975 55.536C24.0579 55.5308 26.0745 53.8308 26.4776 51.5051C26.2805 51.1606 26.303 50.7325 26.535 50.4105C26.3847 47.7344 24.0933 45.6868 21.4171 45.8371C18.741 45.9874 16.6934 48.2788 16.8438 50.955Z" fill="#015965"/>
<path d="M12.8438 24H28.5938C29.215 24 29.7188 24.5037 29.7188 25.125C29.7188 25.7463 29.215 26.25 28.5938 26.25H12.8438C12.2225 26.25 11.7188 25.7463 11.7188 25.125C11.7188 24.5037 12.2225 24 12.8438 24Z" fill="#015965"/>
<path d="M10.5938 36.375H35.3438C35.965 36.375 36.4688 36.8787 36.4688 37.5C36.4688 38.1212 35.965 38.625 35.3438 38.625H10.5938C9.97247 38.625 9.46875 38.1212 9.46875 37.5C9.46875 36.8787 9.97247 36.375 10.5938 36.375Z" fill="#015965"/>
<path d="M12.8438 29.625H25.2188C25.84 29.625 26.3438 30.1287 26.3438 30.75C26.3438 31.3713 25.84 31.875 25.2188 31.875H12.8438C12.2225 31.875 11.7188 31.3713 11.7188 30.75C11.7188 30.1287 12.2225 29.625 12.8438 29.625Z" fill="#015965"/>
<path d="M8.34375 26.25H6.09375C5.47247 26.25 4.96875 25.7463 4.96875 25.125C4.96875 24.5037 5.47247 24 6.09375 24H8.34375C8.96503 24 9.46875 24.5037 9.46875 25.125C9.46875 25.7463 8.96503 26.25 8.34375 26.25Z" fill="#015965"/>
<path d="M4.96875 36.375H7.21875C7.84003 36.375 8.34375 36.8787 8.34375 37.5C8.34375 38.1212 7.84003 38.625 7.21875 38.625H4.96875C4.34747 38.625 3.84375 38.1212 3.84375 37.5C3.84375 36.8787 4.34747 36.375 4.96875 36.375Z" fill="#015965"/>
<path d="M3.84375 29.625H8.34375C8.96503 29.625 9.46875 30.1287 9.46875 30.75C9.46875 31.3713 8.96503 31.875 8.34375 31.875H3.84375C3.22247 31.875 2.71875 31.3713 2.71875 30.75C2.71875 30.1287 3.22247 29.625 3.84375 29.625Z" fill="#015965"/>
</svg>
