<svg width="76" height="72" viewBox="0 0 76 72" fill="none" xmlns="http://www.w3.org/2000/svg">
<ellipse cx="36.1528" cy="36" rx="36.1528" ry="36" fill="#F9B72B" fill-opacity="0.49"/>
<path d="M68.3727 40.1982L68.0235 40.3867C66.6125 38.6745 64.1679 38.011 62.3055 38.9548C62.2988 38.9581 62.2922 38.9616 62.2857 38.965L61.4611 39.4089C60.4777 38.5762 59.2613 38.0672 57.9779 37.9513C56.6945 37.8353 55.4066 38.1181 54.2899 38.761L49.8494 41.1759H43.9408C42.6613 41.1742 41.3987 40.8849 40.2462 40.3294L39.4333 39.9362C37.1192 38.8103 34.5386 38.3467 31.9772 38.5969C29.4159 38.847 26.9738 39.8011 24.9212 41.3535C24.9019 41.3682 24.8831 41.3829 24.8651 41.3996L22.9026 43.1465C22.161 43.8052 21.2844 44.2938 20.3341 44.5782L19.2195 40.9197C19.1643 40.7386 19.0524 40.58 18.9002 40.4674C18.7481 40.3547 18.5638 40.2939 18.3745 40.2939H8.88353C8.75848 40.2939 8.63486 40.3204 8.52083 40.3718C8.4068 40.4231 8.30497 40.498 8.22206 40.5917C8.13916 40.6853 8.07708 40.7954 8.03991 40.9148C8.00275 41.0342 7.99136 41.1601 8.00649 41.2843L11.1701 67.2234C11.1962 67.4376 11.2998 67.6349 11.4614 67.778C11.623 67.921 11.8313 68 12.0471 68H26.2827C26.4208 68 26.5569 67.9676 26.6802 67.9055C26.8035 67.8434 26.9106 67.7532 26.9927 67.6423C27.0749 67.5313 27.1299 67.4027 27.1534 67.2666C27.1768 67.1306 27.1681 66.9909 27.1278 66.8588L25.2577 60.7224L31.0821 57.0412C31.8615 56.61 32.7758 56.4917 33.6392 56.7104C33.6575 56.7149 33.6759 56.7191 33.6944 56.7223L45.5423 58.9039C48.7621 59.48 52.0817 59.0113 55.0161 57.5663C55.0536 57.5478 55.0897 57.5267 55.1242 57.503L75.6166 43.4332C75.8022 43.3057 75.9322 43.1122 75.9799 42.8921C76.0276 42.6721 75.9895 42.4421 75.8734 42.2492C75.1278 41.0074 73.9318 40.101 72.5346 39.719C71.1373 39.3369 69.6466 39.5086 68.3727 40.1982ZM63.1133 40.5262C64.1905 39.9869 65.5465 40.4291 66.4127 41.2556L58.6418 45.4477L58.1853 45.6882C57.9392 44.9895 57.5796 44.3363 57.121 43.7546L63.1133 40.5262ZM55.145 40.3076C55.1519 40.3036 55.1597 40.2998 55.1659 40.2957C55.8619 39.8934 56.653 39.6852 57.4569 39.6927C58.2608 39.7003 59.0479 39.9233 59.7362 40.3386L55.7852 42.4658C55.032 41.9161 54.1726 41.5293 53.2616 41.3301L55.145 40.3076ZM12.8287 66.233L9.88147 42.0609H17.7196L25.0897 66.233H12.8287ZM54.1752 56.0095C51.5952 57.2654 48.6831 57.67 45.8584 57.1651L34.0397 54.9888C32.7397 54.6678 31.3663 54.854 30.1986 55.5093C30.1849 55.5168 30.1712 55.525 30.1578 55.5336L24.722 58.9699L20.8492 46.2696C22.0434 45.9098 23.1447 45.2938 24.0766 44.4648L26.0113 42.742C27.8039 41.3944 29.9336 40.5677 32.1659 40.353C34.3982 40.1383 36.6465 40.5438 38.663 41.525L39.4757 41.9182C40.8683 42.5893 42.3939 42.9389 43.9397 42.941H51.8215C52.9797 42.9426 54.1013 43.3475 54.9934 44.0862C55.8856 44.8249 56.4926 45.8512 56.7103 46.9888L50.9976 46.7304C48.9208 46.637 46.8399 46.7332 44.7805 47.0177C44.5502 47.0518 44.3427 47.1755 44.2031 47.3619C44.0635 47.5482 44.0032 47.7821 44.0351 48.0128C44.067 48.2434 44.1887 48.4521 44.3737 48.5935C44.5587 48.7349 44.792 48.7975 45.0229 48.7678C46.9754 48.498 48.9485 48.4069 50.9176 48.4957L57.6406 48.7998C57.654 48.7998 57.6674 48.8007 57.6807 48.8007C57.915 48.8007 58.1397 48.7076 58.3054 48.5419C58.4711 48.3762 58.5642 48.1515 58.5642 47.9172C58.5642 47.7742 58.5582 47.6326 58.5495 47.4916L59.4714 47.0057L69.2121 41.7525C69.9602 41.3475 70.8211 41.2008 71.6611 41.3355C72.5011 41.4701 73.2731 41.8784 73.8571 42.497L54.1752 56.0095Z" fill="#015965"/>
<path d="M15.6392 62.5781C15.6392 63.1282 15.8023 63.666 16.108 64.1234C16.4136 64.5808 16.848 64.9373 17.3563 65.1479C17.8646 65.3584 18.4239 65.4135 18.9635 65.3061C19.503 65.1988 19.9987 64.9339 20.3877 64.5449C20.7767 64.1559 21.0416 63.6603 21.149 63.1207C21.2563 62.5812 21.2012 62.0219 20.9907 61.5137C20.7801 61.0054 20.4236 60.571 19.9662 60.2654C19.5087 59.9597 18.9709 59.7966 18.4208 59.7966C17.6833 59.7974 16.9763 60.0907 16.4548 60.6122C15.9333 61.1336 15.64 61.8406 15.6392 62.5781ZM18.4208 61.5636C18.6215 61.5636 18.8176 61.6231 18.9845 61.7345C19.1513 61.846 19.2813 62.0045 19.3581 62.1898C19.4349 62.3752 19.455 62.5792 19.4159 62.776C19.3767 62.9728 19.2801 63.1536 19.1382 63.2955C18.9963 63.4374 18.8155 63.534 18.6187 63.5731C18.4219 63.6123 18.2179 63.5922 18.0325 63.5154C17.8471 63.4386 17.6887 63.3086 17.5772 63.1417C17.4657 62.9749 17.4062 62.7787 17.4062 62.5781C17.4067 62.3092 17.5137 62.0514 17.7039 61.8613C17.8941 61.6712 18.1519 61.5639 18.4208 61.5636Z" fill="#015965"/>
<path d="M48.7191 9.5862V6.67482C48.7108 4.90168 48.0006 3.20399 46.7438 1.95312C45.487 0.702242 43.7859 0 42.0127 0C40.2394 0 38.5384 0.702242 37.2816 1.95312C36.0248 3.20399 35.3146 4.90168 35.3062 6.67482V9.5862C35.3146 11.3593 36.0248 13.057 37.2816 14.3079C38.5384 15.5588 40.2394 16.261 42.0127 16.261C43.7859 16.261 45.487 15.5588 46.7438 14.3079C48.0006 13.057 48.7108 11.3593 48.7191 9.5862ZM37.0733 9.5862V6.67482C37.0804 5.36954 37.604 4.12014 38.5295 3.19967C39.455 2.27921 40.7073 1.76252 42.0127 1.76252C43.318 1.76252 44.5703 2.27921 45.4959 3.19967C46.4214 4.12014 46.945 5.36954 46.9521 6.67482V9.5862C46.945 10.8915 46.4214 12.1409 45.4959 13.0614C44.5703 13.9818 43.318 14.4985 42.0127 14.4985C40.7073 14.4985 39.455 13.9818 38.5295 13.0614C37.604 12.1409 37.0804 10.8915 37.0733 9.5862Z" fill="#015965"/>
<path d="M31.2021 34.4889H52.8221C53.0565 34.4889 53.2812 34.3958 53.4469 34.2301C53.6126 34.0644 53.7057 33.8397 53.7057 33.6054V31.5775H68.5061C68.7404 31.5775 68.9651 31.4844 69.1308 31.3187C69.2965 31.153 69.3896 30.9283 69.3896 30.694V24.9596C69.3887 23.277 68.7472 21.6578 67.5955 20.431C66.4438 19.2042 64.8683 18.4618 63.1891 18.3546C62.7179 18.32 62.4756 18.6184 62.2792 18.8579C61.8883 19.3355 61.3936 19.7175 60.8326 19.9749C60.2717 20.2323 59.6595 20.3583 59.0425 20.3432C58.4255 20.3282 57.8202 20.1725 57.2725 19.888C56.7248 19.6035 56.2493 19.1978 55.8822 18.7017C55.7979 18.5875 55.6872 18.4954 55.5597 18.433C55.4322 18.3706 55.2915 18.3399 55.1496 18.3435C54.0019 18.3692 52.8811 18.6962 51.8996 19.2916C51.2516 18.5381 50.4589 17.9223 49.5686 17.4807C48.6782 17.0391 47.7083 16.7807 46.7163 16.7208C46.2598 16.7022 46.0289 16.9793 45.8052 17.2509C45.3466 17.8113 44.766 18.2597 44.1078 18.5618C43.4496 18.8639 42.7311 19.0117 42.0071 18.9941C41.2831 18.9764 40.5727 18.7936 39.93 18.4598C39.2874 18.1259 38.7294 17.6497 38.2987 17.0675C38.2145 16.9532 38.1039 16.861 37.9763 16.7986C37.8488 16.7363 37.708 16.7057 37.5661 16.7094C35.6285 16.7543 33.786 17.558 32.435 18.9476C32.3234 19.0617 32.2175 19.18 32.1143 19.3C31.202 18.7446 30.168 18.42 29.102 18.3543C28.6324 18.3197 28.3884 18.6181 28.1921 18.8576C27.8012 19.3352 27.3065 19.7172 26.7456 19.9746C26.1847 20.232 25.5724 20.358 24.9555 20.3429C24.3385 20.3279 23.7331 20.1722 23.1855 19.8877C22.6378 19.6032 22.1623 19.1975 21.7952 18.7014C21.7108 18.5874 21.6001 18.4953 21.4726 18.433C21.3451 18.3706 21.2045 18.3398 21.0627 18.3432C19.3369 18.3871 17.6965 19.1034 16.4914 20.3394C15.2862 21.5754 14.6116 23.2333 14.6113 24.9596V30.694C14.6113 30.9283 14.7044 31.153 14.8701 31.3187C15.0358 31.4844 15.2605 31.5775 15.4949 31.5775H30.3186V33.6054C30.3186 33.8397 30.4116 34.0644 30.5773 34.2301C30.743 34.3958 30.9678 34.4889 31.2021 34.4889ZM54.7724 20.1384C55.3171 20.7566 55.9868 21.2522 56.7373 21.5924C57.4878 21.9326 58.3019 22.1096 59.1259 22.1117C59.9499 22.1139 60.765 21.9412 61.5172 21.6049C62.2695 21.2687 62.9418 20.7766 63.4898 20.1612C64.6387 20.3346 65.6874 20.914 66.4457 21.7943C67.2039 22.6747 67.6215 23.7977 67.6226 24.9596V29.8105H53.7057V24.1428C53.7066 22.9663 53.4267 21.8065 52.8891 20.7599C53.4665 20.4233 54.108 20.2115 54.7724 20.1384ZM37.1853 18.5032C37.7962 19.2104 38.5518 19.7781 39.4011 20.168C40.2504 20.5579 41.1736 20.7608 42.1081 20.763C43.0426 20.7652 43.9667 20.5667 44.8178 20.1809C45.669 19.795 46.4273 19.2309 47.0415 18.5266C48.3982 18.7142 49.6412 19.3861 50.5413 20.4183C51.4414 21.4505 51.9379 22.7733 51.9392 24.1428V32.7219H32.0856V24.1428C32.0944 22.7405 32.6191 21.3905 33.5597 20.3503C34.5003 19.3101 35.7909 18.6526 37.1853 18.5032ZM16.3784 29.8105V24.9596C16.3858 23.7692 16.8277 22.6225 17.6209 21.7349C18.4141 20.8473 19.5041 20.2798 20.6861 20.139C21.2308 20.757 21.9005 21.2524 22.6509 21.5925C23.4013 21.9325 24.2153 22.1094 25.0392 22.1115C25.863 22.1136 26.6779 21.9409 27.43 21.6047C28.1821 21.2685 28.8543 20.7765 29.4022 20.1612C30.0105 20.2522 30.5958 20.4587 31.1265 20.7696C30.5939 21.8142 30.3169 22.9703 30.3186 24.1428V29.8105H16.3784Z" fill="#015965"/>
<path d="M65.0238 12.2181V9.66965C65.0238 8.08365 64.3937 6.5626 63.2722 5.44113C62.1507 4.31966 60.6296 3.68962 59.0435 3.68962C57.4575 3.68962 55.9364 4.31966 54.8148 5.44113C53.6933 6.5626 53.0633 8.08365 53.0633 9.66965V12.2181C53.0633 13.8041 53.6933 15.3251 54.8148 16.4466C55.9364 17.5681 57.4575 18.1981 59.0435 18.1981C60.6296 18.1981 62.1507 17.5681 63.2722 16.4466C64.3937 15.3251 65.0238 13.8041 65.0238 12.2181ZM54.8303 12.2181V9.66965C54.8303 8.55228 55.2742 7.48067 56.0643 6.69057C56.8545 5.90047 57.9261 5.45659 59.0435 5.45659C60.1609 5.45659 61.2326 5.90047 62.0227 6.69057C62.8128 7.48067 63.2567 8.55228 63.2567 9.66965V12.2181C63.2567 13.3354 62.8128 14.407 62.0227 15.1971C61.2326 15.9872 60.1609 16.4311 59.0435 16.4311C57.9261 16.4311 56.8545 15.9872 56.0643 15.1971C55.2742 14.407 54.8303 13.3354 54.8303 12.2181Z" fill="#015965"/>
<path d="M30.937 12.2181V9.66965C30.937 8.88434 30.7823 8.10672 30.4818 7.38119C30.1812 6.65566 29.7407 5.99643 29.1854 5.44113C28.6301 4.88583 27.9708 4.44535 27.2453 4.14482C26.5197 3.8443 25.7421 3.68962 24.9567 3.68962C24.1714 3.68962 23.3938 3.8443 22.6682 4.14482C21.9426 4.44535 21.2834 4.88583 20.7281 5.44113C20.1728 5.99643 19.7322 6.65566 19.4317 7.38119C19.1312 8.10672 18.9765 8.88434 18.9765 9.66965V12.2181C18.9765 13.0034 19.1312 13.781 19.4317 14.5065C19.7322 15.232 20.1728 15.8913 20.7281 16.4466C21.2834 17.0019 21.9426 17.4424 22.6682 17.7429C23.3938 18.0434 24.1714 18.1981 24.9567 18.1981C25.7421 18.1981 26.5197 18.0434 27.2453 17.7429C27.9708 17.4424 28.6301 17.0019 29.1854 16.4466C29.7407 15.8913 30.1812 15.232 30.4818 14.5065C30.7823 13.781 30.937 13.0034 30.937 12.2181ZM20.7435 12.2181V9.66965C20.7435 8.55228 21.1874 7.48067 21.9776 6.69057C22.7677 5.90047 23.8393 5.45659 24.9567 5.45659C26.0742 5.45659 27.1458 5.90047 27.9359 6.69057C28.7261 7.48067 29.1699 8.55228 29.1699 9.66965V12.2181C29.1699 12.7713 29.061 13.3192 28.8492 13.8303C28.6375 14.3415 28.3272 14.8059 27.9359 15.1971C27.5447 15.5884 27.0802 15.8987 26.5691 16.1104C26.0579 16.3221 25.51 16.4311 24.9567 16.4311C24.4035 16.4311 23.8556 16.3221 23.3444 16.1104C22.8332 15.8987 22.3688 15.5884 21.9776 15.1971C21.5863 14.8059 21.276 14.3415 21.0642 13.8303C20.8525 13.3192 20.7435 12.7713 20.7435 12.2181Z" fill="#015965"/>
</svg>
