<svg width="16" height="16" viewBox="0 0 16 16" fill="none" xmlns="http://www.w3.org/2000/svg">
<g clip-path="url(#clip0)">
<path d="M13.5 6.5V5.5H11.207L14.5 2.207L13.793 1.5L10.5 4.793V2.5H9.5V6.5H13.5Z" fill="url(#paint0_linear)"/>
<path d="M8.82005 12.4406L9.88045 11.3802C10.0224 11.2382 10.2029 11.141 10.3995 11.1006C10.5962 11.0603 10.8004 11.0785 10.9868 11.153L12.2782 11.6699C12.4685 11.7461 12.6317 11.8775 12.7466 12.0473C12.8615 12.2171 12.9229 12.4174 12.9229 12.6224V14.9709C12.9233 15.1105 12.8951 15.2486 12.8402 15.377C12.7853 15.5053 12.7047 15.6211 12.6035 15.7172C12.5023 15.8133 12.3825 15.8878 12.2515 15.936C12.1205 15.9842 11.9811 16.0052 11.8417 15.9977C2.78954 15.4343 0.961303 7.7673 0.621882 4.83133C0.605443 4.6878 0.619578 4.54241 0.663357 4.40473C0.707137 4.26705 0.779569 4.1402 0.875889 4.03252C0.97221 3.92485 1.09024 3.83878 1.2222 3.77999C1.35417 3.72119 1.49709 3.69101 1.64156 3.69141H3.94839C4.1534 3.6914 4.35372 3.75282 4.52349 3.86775C4.69326 3.98267 4.8247 4.14583 4.90086 4.33617L5.41732 5.62758C5.49186 5.81399 5.51006 6.01817 5.46967 6.21482C5.42927 6.41147 5.33207 6.59195 5.1901 6.73389L4.1297 7.79428C4.1297 7.79428 4.71765 11.9279 8.82005 12.4406Z" fill="url(#paint1_linear)"/>
</g>
<defs>
<linearGradient id="paint0_linear" x1="12" y1="1.5" x2="12" y2="6.5" gradientUnits="userSpaceOnUse">
<stop stop-color="#10AEAE" stop-opacity="0.65"/>
<stop offset="1" stop-color="#10AEAE"/>
</linearGradient>
<linearGradient id="paint1_linear" x1="6.76908" y1="3.69141" x2="6.76908" y2="15.9992" gradientUnits="userSpaceOnUse">
<stop stop-color="#10AEAE" stop-opacity="0.65"/>
<stop offset="1" stop-color="#10AEAE"/>
</linearGradient>
<clipPath id="clip0">
<rect width="16" height="16" fill="white"/>
</clipPath>
</defs>
</svg>
