<svg width="73" height="72" viewBox="0 0 73 72" fill="none" xmlns="http://www.w3.org/2000/svg">
<ellipse cx="36.1987" cy="36" rx="36.1528" ry="36" fill="#F9B72B" fill-opacity="0.49"/>
<path d="M60.4254 32.8152L48.0383 39.5562V57.259L60.4254 64L72.8125 57.259V39.5562L60.4254 32.8152ZM70.748 56.0354L60.4254 61.6538L50.1028 56.0354V40.7798L60.4254 35.1614L70.748 40.7798V56.0354Z" fill="#015965"/>
<path d="M52.1673 48.4076C52.1673 52.9507 55.8721 56.6472 60.4254 56.6472C64.9787 56.6472 68.6835 52.9507 68.6835 48.4076C68.6835 43.8645 64.9787 40.168 60.4254 40.168C55.8721 40.168 52.1673 43.8645 52.1673 48.4076ZM66.6189 48.4076C66.6189 51.8157 63.8411 54.5873 60.4254 54.5873C57.0097 54.5873 54.2319 51.8157 54.2319 48.4076C54.2319 44.9995 57.0097 42.2279 60.4254 42.2279C63.8411 42.2279 66.6189 44.9995 66.6189 48.4076Z" fill="#015965"/>
<path d="M23.2641 35.0183C15.2951 35.0183 8.8125 41.4863 8.8125 49.4376C8.8125 57.3888 15.2951 63.8568 23.2641 63.8568C31.2331 63.8568 37.7157 57.3888 37.7157 49.4376C37.7157 41.4863 31.2331 35.0183 23.2641 35.0183ZM23.2641 61.7969C16.4337 61.7969 10.877 56.2527 10.877 49.4376C10.877 42.6224 16.4337 37.0782 23.2641 37.0782C30.0946 37.0782 35.6512 42.6224 35.6512 49.4376C35.6512 56.2527 30.0946 61.7969 23.2641 61.7969Z" fill="#015965"/>
<path d="M23.2641 41.198C18.7108 41.198 15.006 44.8944 15.006 49.4376C15.006 53.9807 18.7108 57.6771 23.2641 57.6771C27.8174 57.6771 31.5222 53.9807 31.5222 49.4376C31.5222 44.8944 27.8174 41.198 23.2641 41.198ZM23.2641 55.6172C19.8484 55.6172 17.0706 52.8457 17.0706 49.4376C17.0706 46.0295 19.8484 43.2579 23.2641 43.2579C26.6799 43.2579 29.4577 46.0295 29.4577 49.4376C29.4577 52.8457 26.6799 55.6172 23.2641 55.6172Z" fill="#015965"/>
<path d="M57.3286 18.5391C57.3286 8.31684 48.9931 0 38.748 0C28.5028 0 20.1673 8.31684 20.1673 18.5391C20.1673 28.7613 28.5028 37.0782 38.748 37.0782C48.9931 37.0782 57.3286 28.7613 57.3286 18.5391ZM38.748 35.0183C29.6414 35.0183 22.2319 27.6253 22.2319 18.5391C22.2319 9.45287 29.6414 2.0599 38.748 2.0599C47.8546 2.0599 55.2641 9.45287 55.2641 18.5391C55.2641 27.6253 47.8546 35.0183 38.748 35.0183Z" fill="#015965"/>
<path d="M38.748 8.2396C33.0561 8.2396 28.4254 12.86 28.4254 18.5391C28.4254 24.2182 33.0561 28.8386 38.748 28.8386C41.4215 28.8386 43.9578 27.822 45.8891 25.9774L44.4615 24.4891C42.9162 25.966 40.8868 26.7787 38.748 26.7787C34.1947 26.7787 30.4899 23.0822 30.4899 18.5391C30.4899 13.996 34.1947 10.2995 38.748 10.2995C43.3013 10.2995 47.006 13.996 47.006 18.5391C47.006 20.1777 46.525 21.7608 45.6156 23.1152L47.3312 24.2615C48.4688 22.5662 49.0706 20.5866 49.0706 18.5391C49.0706 12.86 44.4399 8.2396 38.748 8.2396Z" fill="#015965"/>
<path d="M38.748 12.3594C35.3322 12.3594 32.5544 15.131 32.5544 18.5391C32.5544 21.9472 35.3322 24.7188 38.748 24.7188C42.1637 24.7188 44.9415 21.9472 44.9415 18.5391C44.9415 15.131 42.1637 12.3594 38.748 12.3594ZM38.748 22.6589C36.4708 22.6589 34.619 20.8111 34.619 18.5391C34.619 16.267 36.4708 14.4193 38.748 14.4193C41.0251 14.4193 42.877 16.267 42.877 18.5391C42.877 20.8111 41.0251 22.6589 38.748 22.6589Z" fill="#015965"/>
</svg>
