<svg width="23" height="26" viewBox="0 0 23 26" fill="none" xmlns="http://www.w3.org/2000/svg">
<path d="M22.1821 6.10396C21.7602 4.59786 20.9249 3.40818 19.7015 2.56654C18.1574 1.5013 16.3813 1.12583 14.8478 0.895911C12.7258 0.579505 10.8041 0.535208 8.97109 0.758802C7.25406 0.969739 5.96102 1.30513 4.78187 1.84724C2.47 2.91036 1.08203 4.6295 0.658046 6.95615C0.451328 8.08677 0.312109 9.10771 0.231953 10.0822C0.0463279 12.3351 0.215078 14.3284 0.74664 16.1762C1.26555 17.9776 2.17047 19.2643 3.51414 20.1102C3.85586 20.3254 4.29461 20.4815 4.71859 20.6312C4.95906 20.7156 5.1932 20.7979 5.38516 20.8886C5.56234 20.9708 5.56234 20.9856 5.56023 21.1333C5.54547 22.4136 5.56023 24.9238 5.56023 24.9238L5.56445 25.4596H6.52633L6.68242 25.3077C6.78578 25.2107 9.16938 22.9072 10.0195 21.9791L10.1355 21.8504C10.281 21.6817 10.281 21.6817 10.4308 21.6796C11.5783 21.6564 12.7511 21.6121 13.9155 21.5488C15.3266 21.4729 16.9614 21.3358 18.5013 20.6945C19.9103 20.106 20.9397 19.1715 21.5577 17.9186C22.2032 16.6108 22.585 15.1954 22.7284 13.5901C22.9816 10.7678 22.8023 8.3188 22.1821 6.10396ZM17.107 17.079C16.7526 17.6549 16.2252 18.0557 15.603 18.3151C15.1473 18.505 14.6833 18.4649 14.234 18.2751C10.473 16.6825 7.52195 14.1744 5.57289 10.5674C5.17 9.82489 4.89156 9.01489 4.57094 8.23021C4.50555 8.06989 4.50977 7.88005 4.48023 7.70286C4.50766 6.43513 5.48008 5.72005 6.46305 5.5049C6.83852 5.42052 7.1718 5.55341 7.45023 5.8213C8.22227 6.55536 8.83188 7.40966 9.29172 8.36732C9.49211 8.78708 9.40141 9.15833 9.05969 9.47052C8.98797 9.53591 8.91414 9.59497 8.83609 9.65403C8.05563 10.2404 7.94172 10.6855 8.35727 11.5693C9.06602 13.0733 10.243 14.0837 11.7639 14.7102C12.1647 14.8747 12.5423 14.7925 12.8481 14.4676C12.8903 14.4254 12.9367 14.3833 12.9663 14.3326C13.5653 13.3328 14.4365 13.4319 15.2402 14.0015C15.7675 14.3769 16.2801 14.7735 16.8011 15.1553C17.5963 15.7396 17.59 16.288 17.107 17.079ZM12.1183 7.09958C11.9411 7.09958 11.7639 7.11435 11.5888 7.14388C11.2935 7.1924 11.0172 6.99411 10.9666 6.6988C10.918 6.4056 11.1163 6.12716 11.4116 6.07865C11.6437 6.03857 11.882 6.01958 12.1183 6.01958C14.4576 6.01958 16.3602 7.92224 16.3602 10.2615C16.3602 10.4999 16.3413 10.7383 16.3012 10.9682C16.2569 11.2318 16.0291 11.4196 15.7696 11.4196C15.7401 11.4196 15.7105 11.4175 15.6789 11.4111C15.3857 11.3626 15.1874 11.0842 15.2359 10.791C15.2655 10.618 15.2802 10.4408 15.2802 10.2615C15.2802 8.51919 13.8606 7.09958 12.1183 7.09958ZM14.7402 10.3396C14.7402 10.637 14.4977 10.8796 14.2002 10.8796C13.9028 10.8796 13.6602 10.637 13.6602 10.3396C13.6602 9.44732 12.9325 8.71958 12.0402 8.71958C11.7428 8.71958 11.5002 8.477 11.5002 8.17958C11.5002 7.88216 11.7428 7.63958 12.0402 7.63958C13.5295 7.63958 14.7402 8.85036 14.7402 10.3396ZM17.8241 11.5398C17.7672 11.7908 17.5436 11.9596 17.2968 11.9596C17.2567 11.9596 17.2166 11.9554 17.1766 11.9469C16.8855 11.8794 16.7041 11.5904 16.7695 11.2993C16.8475 10.9555 16.8876 10.599 16.8876 10.2404C16.8876 7.61638 14.7508 5.47958 12.1267 5.47958C11.7681 5.47958 11.4116 5.51966 11.0678 5.59771C10.7767 5.66521 10.4877 5.48169 10.4223 5.1906C10.3548 4.8995 10.5384 4.61052 10.8295 4.54513C11.2513 4.4481 11.688 4.39958 12.1267 4.39958C15.3477 4.39958 17.9676 7.01943 17.9676 10.2404C17.9676 10.6792 17.9191 11.1158 17.8241 11.5398Z" fill="white"/>
</svg>
