<svg width="16" height="18" viewBox="0 0 16 18" fill="none" xmlns="http://www.w3.org/2000/svg">
<path d="M15.5363 3.86933C15.2387 2.80684 14.6494 1.96756 13.7864 1.37381C12.6971 0.622331 11.4441 0.357452 10.3623 0.195251C8.86526 -0.0279617 7.50961 -0.0592113 6.21647 0.0985257C5.00517 0.247334 4.09297 0.483939 3.26114 0.866377C1.6302 1.61637 0.651036 2.82916 0.351931 4.47052C0.206099 5.26813 0.107886 5.98836 0.0513387 6.67585C-0.0796126 8.26513 0.0394341 9.67137 0.414431 10.9749C0.7805 12.2458 1.41889 13.1535 2.3668 13.7502C2.60787 13.902 2.91739 14.0121 3.21649 14.1178C3.38613 14.1773 3.55131 14.2353 3.68673 14.2993C3.81173 14.3573 3.81173 14.3678 3.81024 14.4719C3.79982 15.3752 3.81024 17.146 3.81024 17.146L3.81321 17.524H4.49178L4.6019 17.4168C4.67481 17.3484 6.35635 15.7234 6.95605 15.0686L7.03789 14.9779C7.14057 14.8588 7.14057 14.8588 7.24622 14.8573C8.05574 14.841 8.88312 14.8097 9.70454 14.7651C10.7001 14.7115 11.8533 14.6148 12.9396 14.1624C13.9337 13.7472 14.6599 13.088 15.0959 12.2041C15.5512 11.2815 15.8206 10.283 15.9218 9.15054C16.1003 7.15948 15.9738 5.43182 15.5363 3.86933ZM11.956 11.6118C11.706 12.0181 11.334 12.3008 10.895 12.4838C10.5736 12.6178 10.2462 12.5895 9.92924 12.4556C7.27599 11.3321 5.19416 9.56274 3.81917 7.01811C3.53494 6.49431 3.33852 5.92288 3.11233 5.36932C3.0662 5.25622 3.06917 5.1223 3.04834 4.9973C3.06768 4.10296 3.75369 3.5985 4.44714 3.44671C4.71202 3.38719 4.94713 3.48094 5.14356 3.66993C5.6882 4.18778 6.11826 4.79045 6.44266 5.46604C6.58403 5.76217 6.52004 6.02407 6.27897 6.24431C6.22837 6.29044 6.17629 6.33211 6.12123 6.37377C5.57064 6.78746 5.49028 7.10145 5.78344 7.72495C6.28343 8.78596 7.11378 9.49875 8.18669 9.94071C8.46943 10.0568 8.7358 9.99875 8.95157 9.76958C8.98133 9.73982 9.01407 9.71006 9.0349 9.67434C9.45752 8.96899 10.0721 9.03893 10.6391 9.44071C11.0111 9.70559 11.3727 9.98535 11.7402 10.2547C12.3012 10.6669 12.2968 11.0538 11.956 11.6118ZM8.43669 4.5717C8.31169 4.5717 8.18669 4.58212 8.06318 4.60295C7.85485 4.63718 7.65991 4.4973 7.6242 4.28897C7.58997 4.08213 7.72985 3.8857 7.93818 3.85147C8.10187 3.8232 8.27003 3.80981 8.43669 3.80981C10.087 3.80981 11.4292 5.15206 11.4292 6.80234C11.4292 6.9705 11.4158 7.13865 11.3876 7.30085C11.3563 7.48686 11.1956 7.6193 11.0126 7.6193C10.9917 7.6193 10.9709 7.61781 10.9486 7.61335C10.7417 7.57912 10.6019 7.38269 10.6361 7.17585C10.6569 7.05383 10.6673 6.92883 10.6673 6.80234C10.6673 5.57318 9.66585 4.5717 8.43669 4.5717ZM10.2864 6.8574C10.2864 7.06722 10.1152 7.23835 9.90543 7.23835C9.69561 7.23835 9.52448 7.06722 9.52448 6.8574C9.52448 6.22794 9.01109 5.71455 8.38163 5.71455C8.17181 5.71455 8.00068 5.54342 8.00068 5.3336C8.00068 5.12378 8.17181 4.95265 8.38163 4.95265C9.43222 4.95265 10.2864 5.80681 10.2864 6.8574ZM12.462 7.70412C12.4218 7.8812 12.264 8.00025 12.0899 8.00025C12.0617 8.00025 12.0334 7.99727 12.0051 7.99132C11.7998 7.9437 11.6718 7.73983 11.7179 7.53448C11.773 7.29192 11.8012 7.04044 11.8012 6.78746C11.8012 4.93629 10.2938 3.42886 8.44264 3.42886C8.18967 3.42886 7.93818 3.45713 7.69562 3.51219C7.49027 3.55981 7.2864 3.43034 7.24027 3.22499C7.19265 3.01963 7.32212 2.81577 7.52747 2.76964C7.82509 2.70118 8.13312 2.66696 8.44264 2.66696C10.7149 2.66696 12.5631 4.51516 12.5631 6.78746C12.5631 7.09698 12.5289 7.40502 12.462 7.70412Z" fill="#730060"/>
</svg>
